<svg width="16" height="16" viewBox="0 0 16 16" fill="none" xmlns="http://www.w3.org/2000/svg">
<path d="M11.3493 2.02206L10.7129 1.8525C8.91299 1.37291 8.01299 1.13313 7.30399 1.54017C6.59497 1.94721 6.35381 2.84212 5.87151 4.63195L5.18943 7.16314C4.70713 8.95294 4.46598 9.84787 4.87533 10.5529C5.28467 11.2579 6.18467 11.4977 7.98466 11.9773L8.62106 12.1469C10.421 12.6264 11.321 12.8662 12.03 12.4592C12.739 12.0521 12.9802 11.1572 13.4625 9.36741L14.1445 6.83621C14.6269 5.04637 14.868 4.15146 14.4587 3.44645C14.0493 2.74143 13.1493 2.50164 11.3493 2.02206Z" stroke="#7A7979"/>
<path d="M11.2353 4.95534C11.2353 5.49806 10.7929 5.93802 10.2471 5.93802C9.70126 5.93802 9.25879 5.49806 9.25879 4.95534C9.25879 4.41262 9.70126 3.97266 10.2471 3.97266C10.7929 3.97266 11.2353 4.41262 11.2353 4.95534Z" stroke="#7A7979"/>
<path d="M7.99968 13.9645L7.36481 14.1374C5.56903 14.6264 4.67116 14.8709 3.9638 14.4558C3.25646 14.0408 3.01587 13.1284 2.5347 11.3034L1.85422 8.72258C1.37305 6.89765 1.13246 5.98519 1.54086 5.26634C1.89412 4.64452 2.66634 4.66716 3.66634 4.66708" stroke="#7A7979" stroke-linecap="round"/>
</svg>
