<svg width="18" height="19" viewBox="0 0 18 19" fill="none" xmlns="http://www.w3.org/2000/svg">
<path d="M2.25 4.625H15.75M12.0418 4.625L11.5298 3.5688C11.1897 2.8672 11.0196 2.51639 10.7263 2.29761C10.6612 2.24908 10.5923 2.2059 10.5203 2.16852C10.1954 2 9.80558 2 9.02588 2C8.2266 2 7.827 2 7.49676 2.17559C7.42357 2.21451 7.35373 2.25943 7.28797 2.30988C6.99123 2.53753 6.82547 2.90116 6.49396 3.62844L6.03969 4.625" stroke="#FF2626" stroke-linecap="round"/>
<path d="M14.625 4.625L14.1602 12.1438C14.0414 14.0648 13.9821 15.0253 13.5006 15.7159C13.2625 16.0573 12.956 16.3455 12.6005 16.562C11.8816 17 10.9192 17 8.99452 17C7.06734 17 6.10372 17 5.38429 16.5612C5.0286 16.3443 4.722 16.0556 4.48401 15.7136C4.00266 15.0219 3.94459 14.0601 3.82846 12.1364L3.375 4.625" stroke="#FF2626" stroke-linecap="round"/>
<path d="M7.125 13.0625V8.3125" stroke="#FF2626" stroke-linecap="round"/>
<path d="M10.875 13.0625V8.3125" stroke="#FF2626" stroke-linecap="round"/>
</svg>
