<svg width="116" height="146" viewBox="0 0 116 146" fill="none" xmlns="http://www.w3.org/2000/svg">
<path d="M23.4697 114.909H17.7041L12.6416 106.362H10.2197V114.909H5.48535V92.5029H14.126C15.376 92.5029 16.5426 92.8102 17.626 93.4248C18.7093 94.0394 19.5739 94.8831 20.2197 95.9561C20.8656 97.0186 21.1885 98.1748 21.1885 99.4248C21.1885 100.841 20.8708 102.091 20.2354 103.175C19.5999 104.258 18.7249 105.076 17.6104 105.628L23.4697 114.909ZM10.2197 97.0811V102.269H13.6416C14.4124 102.269 15.0635 102.019 15.5947 101.519C16.126 101.019 16.3916 100.394 16.3916 99.6436C16.3916 98.9248 16.126 98.3206 15.5947 97.8311C15.0635 97.3311 14.4124 97.0811 13.6416 97.0811H10.2197ZM38.7666 106.362C38.7666 106.998 38.7249 107.586 38.6416 108.128H27.3447C27.5531 109.19 28.0062 110.003 28.7041 110.565C29.402 111.118 30.2926 111.394 31.376 111.394C32.0843 111.394 32.7614 111.243 33.4072 110.94C34.0635 110.638 34.527 110.253 34.7979 109.784L38.3135 111.94C37.7406 112.982 36.8343 113.789 35.5947 114.362C34.3551 114.935 32.9176 115.222 31.2822 115.222C28.9697 115.222 27.0114 114.43 25.4072 112.847C23.8135 111.253 23.0166 109.295 23.0166 106.972C23.0166 104.69 23.8031 102.774 25.376 101.222C26.9593 99.6592 28.8968 98.8779 31.1885 98.8779C33.3135 98.8779 35.1051 99.6019 36.5635 101.05C38.0322 102.498 38.7666 104.269 38.7666 106.362ZM27.4072 105.253H34.251C34.1572 104.472 33.7926 103.821 33.1572 103.3C32.5218 102.779 31.7874 102.519 30.9541 102.519C30.0166 102.519 29.2458 102.758 28.6416 103.237C28.0374 103.716 27.626 104.388 27.4072 105.253ZM56.1104 110.722C55.5166 112.086 54.5531 113.18 53.2197 114.003C51.8864 114.815 50.3864 115.222 48.7197 115.222C46.3656 115.222 44.3968 114.446 42.8135 112.894C41.2406 111.341 40.4541 109.399 40.4541 107.065C40.4541 104.732 41.2406 102.784 42.8135 101.222C44.3968 99.6592 46.3656 98.8779 48.7197 98.8779C50.2406 98.8779 51.6104 99.2269 52.8291 99.9248C54.0583 100.623 54.9906 101.565 55.626 102.753L51.8135 104.925C51.5218 104.383 51.0999 103.961 50.5479 103.659C50.0062 103.347 49.3968 103.19 48.7197 103.19C47.6051 103.19 46.6833 103.56 45.9541 104.3C45.2354 105.039 44.876 105.961 44.876 107.065C44.876 108.159 45.2354 109.076 45.9541 109.815C46.6833 110.545 47.6051 110.909 48.7197 110.909C49.4801 110.909 50.1572 110.737 50.751 110.394C51.3551 110.039 51.8083 109.55 52.1104 108.925L56.1104 110.722ZM74.3135 114.909H68.5322L62.8291 107.862V114.909H58.3135V92.5029H62.8291V105.69L68.2666 99.1904H73.8135L67.2822 106.784L74.3135 114.909ZM82.1572 98.8779C83.2926 98.8779 84.3604 99.0863 85.3604 99.5029C86.3708 99.9196 87.2354 100.493 87.9541 101.222C88.6833 101.94 89.2562 102.81 89.6729 103.831C90.0999 104.841 90.3135 105.92 90.3135 107.065C90.3135 108.597 89.9541 109.987 89.2354 111.237C88.527 112.487 87.5479 113.466 86.2979 114.175C85.0583 114.873 83.6781 115.222 82.1572 115.222C79.8343 115.222 77.8916 114.446 76.3291 112.894C74.7666 111.341 73.9854 109.399 73.9854 107.065C73.9854 104.732 74.7666 102.784 76.3291 101.222C77.8916 99.6592 79.8343 98.8779 82.1572 98.8779ZM82.1572 103.19C81.0843 103.19 80.1885 103.56 79.4697 104.3C78.7614 105.029 78.4072 105.951 78.4072 107.065C78.4072 108.149 78.7614 109.06 79.4697 109.8C80.1885 110.539 81.0843 110.909 82.1572 110.909C83.2093 110.909 84.0947 110.539 84.8135 109.8C85.5322 109.06 85.8916 108.149 85.8916 107.065C85.8916 105.951 85.5322 105.029 84.8135 104.3C84.1051 103.56 83.2197 103.19 82.1572 103.19ZM101.657 98.8779C103.636 98.8779 105.194 99.5186 106.329 100.8C107.475 102.071 108.048 103.81 108.048 106.019V114.909H103.532V106.784C103.532 105.711 103.261 104.873 102.72 104.269C102.178 103.664 101.438 103.362 100.501 103.362C99.876 103.362 99.277 103.524 98.7041 103.847C98.1312 104.17 97.6833 104.602 97.3604 105.144V114.909H92.8447V99.1904H97.3604V101.05C97.7874 100.383 98.3864 99.8571 99.1572 99.4717C99.9385 99.0758 100.772 98.8779 101.657 98.8779Z" fill="white"/>
<path d="M3.97793 142.454L0.33793 132.654H2.57793L5.13993 139.864H5.19593L7.75793 132.654H9.99793L6.35793 142.454H3.97793ZM14.2641 142.454V132.654H21.5441V134.614H16.3641V136.504H20.4241V138.394H16.3641V140.494H21.6841V142.454H14.2641ZM26.3746 142.454V132.654H30.7146C32.8146 132.654 34.1446 133.984 34.1446 135.944C34.1446 137.064 33.7386 137.792 33.3046 138.226C33.0666 138.478 32.7866 138.674 32.4646 138.814L34.4946 142.454H32.1846L30.4346 139.234H28.4746V142.454H26.3746ZM28.4746 137.274H30.6446C31.4286 137.274 31.9746 136.728 31.9746 135.944C31.9746 135.16 31.4286 134.614 30.6446 134.614H28.4746V137.274ZM38.0657 141.124L39.4657 139.724C39.6337 139.92 39.8297 140.102 40.0677 140.256C40.4597 140.522 41.0337 140.774 41.7757 140.774C42.8957 140.774 43.3857 140.284 43.3857 139.654C43.3857 137.988 38.4857 138.73 38.4857 135.314C38.4857 133.774 39.8157 132.444 42.0557 132.444C43.1337 132.444 43.9737 132.78 44.5197 133.116C44.8417 133.312 45.1077 133.536 45.3457 133.774L43.9457 135.174C43.7917 135.02 43.6377 134.88 43.4557 134.754C43.1337 134.544 42.6857 134.334 42.1257 134.334C41.0617 134.334 40.6557 134.754 40.6557 135.314C40.6557 136.98 45.5557 136.238 45.5557 139.654C45.5557 141.264 44.1557 142.664 41.8457 142.664C40.5717 142.664 39.6337 142.286 39.0037 141.894C38.6257 141.67 38.3177 141.418 38.0657 141.124ZM50.0352 142.454V132.654H52.1352V142.454H50.0352ZM58.9963 137.554C58.9963 139.304 60.3963 140.704 62.1463 140.704C63.8963 140.704 65.2963 139.304 65.2963 137.554C65.2963 135.804 63.8963 134.404 62.1463 134.404C60.3963 134.404 58.9963 135.804 58.9963 137.554ZM56.8263 137.554C56.8263 134.754 59.1223 132.444 62.1463 132.444C65.1703 132.444 67.4663 134.754 67.4663 137.554C67.4663 140.354 65.1703 142.664 62.1463 142.664C59.1223 142.664 56.8263 140.354 56.8263 137.554ZM72.1508 142.454V132.654H74.0408L78.8008 138.744V132.654H80.9008V142.454H79.0108L74.2508 136.364V142.454H72.1508ZM92.7959 142.454V135.314H91.1159V133.984C91.8999 133.886 92.3899 133.564 92.7119 133.242C92.8939 133.06 93.0339 132.864 93.1459 132.654H94.8959V142.454H92.7959ZM99.511 141.474C99.511 140.844 100.001 140.354 100.631 140.354C101.261 140.354 101.751 140.844 101.751 141.474C101.751 142.104 101.261 142.594 100.631 142.594C100.001 142.594 99.511 142.104 99.511 141.474ZM110.014 140.704C111.064 140.704 112.114 139.654 112.114 137.554C112.114 135.454 111.064 134.404 110.014 134.404C108.964 134.404 107.914 135.454 107.914 137.554C107.914 139.654 108.964 140.704 110.014 140.704ZM110.014 142.664C107.774 142.664 105.814 140.704 105.814 137.554C105.814 134.404 107.774 132.444 110.014 132.444C112.254 132.444 114.214 134.404 114.214 137.554C114.214 140.704 112.254 142.664 110.014 142.664Z" fill="white"/>
<path d="M21.2719 12.601C35.0505 31.0246 55.9169 73.4425 38.9305 73.6915C34.8061 73.7537 20.1721 62.2701 38.5944 31.118C47.332 16.3044 61.355 11.3251 64.8989 20.0078C71.7118 36.6887 45.9267 59.7182 67.2514 73.2869C70.0926 75.0919 73.2394 76.3679 76.4167 77.3638C77.6999 77.7683 88.3928 80.9116 88.851 79.9779L96 62.6435C96 62.6435 64.013 67.4984 73.5449 45.9938C78.0359 35.8484 87.018 22.3419 78.4331 11.6674C46.3238 -28.1052 -10.4402 83.3079 37.464 86.42C75.6835 88.8785 44.3991 15.6509 36.3336 0.930664C31.1094 4.47845 26.4962 9.05324 21.2719 12.601Z" fill="white"/>
</svg>
