<svg width="18" height="18" viewBox="0 0 18 18" fill="none" xmlns="http://www.w3.org/2000/svg">
<path d="M9.75 2.25173C9.39743 2.25 9.02303 2.25 8.625 2.25C5.26624 2.25 3.58687 2.25 2.54343 3.29343C1.5 4.33687 1.5 6.01624 1.5 9.375C1.5 12.7337 1.5 14.4131 2.54343 15.4566C3.58687 16.5 5.26624 16.5 8.625 16.5C11.9837 16.5 13.6631 16.5 14.7066 15.4566C15.7104 14.4527 15.7485 12.8602 15.7499 9.75" stroke="white" stroke-width="1.5" stroke-linecap="round"/>
<path d="M1.5 10.6015C1.96426 10.5341 2.43363 10.5008 2.90378 10.502C4.89274 10.4599 6.83298 11.0797 8.37832 12.2506C9.8115 13.3366 10.8185 14.8312 11.25 16.5" stroke="white" stroke-width="1.5" stroke-linejoin="round"/>
<path d="M15.75 12.6721C14.8684 12.2256 13.9566 11.9991 13.0396 12C11.6509 11.9946 10.2761 12.5049 9 13.5" stroke="white" stroke-width="1.5" stroke-linejoin="round"/>
<path d="M12.75 3.375C13.1186 2.99573 14.0998 1.5 14.625 1.5M14.625 1.5C15.1502 1.5 16.1314 2.99573 16.5 3.375M14.625 1.5V7.5" stroke="white" stroke-width="1.5" stroke-linecap="round" stroke-linejoin="round"/>
</svg>
