<svg width="16" height="16" viewBox="0 0 16 16" fill="none" xmlns="http://www.w3.org/2000/svg">
<path d="M1.97754 6.99707V10.3316C1.97754 12.2179 1.97754 13.161 2.56333 13.747C3.14911 14.3331 4.09192 14.3331 5.97754 14.3331H9.97754C11.8631 14.3331 12.8059 14.3331 13.3917 13.747C13.9775 13.161 13.9775 12.2179 13.9775 10.3316V6.99707" stroke="#7A7979" stroke-linecap="round"/>
<path d="M9.97754 11.3291C9.52147 11.7339 8.79541 11.9958 7.97754 11.9958C7.15967 11.9958 6.4336 11.7339 5.97754 11.3291" stroke="#7A7979" stroke-linecap="round"/>
<path d="M6.73554 5.61232C6.54755 6.29125 5.86386 7.4624 4.56485 7.63213C3.41789 7.782 2.54798 7.28133 2.32578 7.072C2.08079 6.90227 1.52245 6.35915 1.38571 6.01968C1.24897 5.68021 1.4085 4.94471 1.52245 4.64484L1.97796 3.32592C2.08916 2.99464 2.34947 2.21111 2.61635 1.94609C2.88323 1.68107 3.42355 1.66953 3.64594 1.66953H8.31627C9.51841 1.68652 12.1469 1.65881 12.6665 1.66954C13.1861 1.68026 13.4984 2.11582 13.5895 2.30253C14.3648 4.18041 14.6663 5.25588 14.6663 5.71416C14.5651 6.20304 14.1463 7.12487 12.6665 7.53033C11.1285 7.95167 10.2566 7.13207 9.98307 6.8174M6.10315 6.8174C6.31965 7.08333 6.99881 7.6186 7.98327 7.63213C8.96781 7.64573 9.81787 6.95887 10.1198 6.61375C10.2053 6.51191 10.3899 6.20978 10.5813 5.61232" stroke="#7A7979" stroke-linecap="round" stroke-linejoin="round"/>
</svg>
