<svg width="16" height="16" viewBox="0 0 16 16" fill="none" xmlns="http://www.w3.org/2000/svg">
<path d="M13.6663 6.99967V6.66634C13.6663 4.15218 13.6663 2.89511 12.8853 2.11405C12.1042 1.33301 10.8471 1.33301 8.33294 1.33301H7.66634C5.15223 1.33301 3.89516 1.33301 3.11411 2.11405C2.33307 2.89509 2.33305 4.15215 2.33303 6.66629L2.33301 9.66634C2.33299 11.8579 2.33298 12.9538 2.93826 13.6913C3.04909 13.8264 3.17291 13.9502 3.30795 14.0611C4.04552 14.6663 5.14133 14.6663 7.33294 14.6663" stroke="#7A7979" stroke-linecap="round" stroke-linejoin="round"/>
<path d="M5 4.66699H11" stroke="#7A7979" stroke-linecap="round" stroke-linejoin="round"/>
<path d="M5 8H9" stroke="#7A7979" stroke-linecap="round" stroke-linejoin="round"/>
<path d="M13.667 13.333V11.333C13.667 10.3801 12.7716 9.33301 11.667 9.33301C10.5624 9.33301 9.66699 10.3801 9.66699 11.333V13.6663C9.66699 14.2186 10.1147 14.6663 10.667 14.6663C11.2193 14.6663 11.667 14.2186 11.667 13.6663V11.333" stroke="#7A7979" stroke-linecap="round" stroke-linejoin="round"/>
</svg>
