<svg width="18" height="18" viewBox="0 0 18 18" fill="none" xmlns="http://www.w3.org/2000/svg">
<path d="M12.1606 3.73679L13.2119 2.68547C13.7925 2.10484 14.7339 2.10484 15.3145 2.68547C15.8951 3.2661 15.8951 4.20748 15.3145 4.78811L14.2632 5.83943M12.1606 3.73679L8.23515 7.66222C7.4512 8.4462 7.05919 8.83815 6.79228 9.31582C6.52535 9.7935 6.2568 10.9214 6 12C7.07857 11.7432 8.2065 11.4746 8.68418 11.2077C9.16185 10.9408 9.5538 10.5488 10.3378 9.76485L14.2632 5.83943M12.1606 3.73679L14.2632 5.83943" stroke="#141B34" stroke-linecap="round" stroke-linejoin="round"/>
<path d="M15.75 9C15.75 12.1819 15.75 13.773 14.7615 14.7615C13.773 15.75 12.1819 15.75 9 15.75C5.81802 15.75 4.22703 15.75 3.23851 14.7615C2.25 13.773 2.25 12.1819 2.25 9C2.25 5.81802 2.25 4.22703 3.23851 3.23851C4.22703 2.25 5.81802 2.25 9 2.25" stroke="#141B34" stroke-linecap="round"/>
</svg>
