<svg width="16" height="18" viewBox="0 0 16 18" fill="none" xmlns="http://www.w3.org/2000/svg">
<path d="M0.940982 3.05439C3.62341 6.57695 7.68739 14.6885 4.3814 14.7355C3.57562 14.7467 0.730391 12.5527 4.31269 6.59413C6.0161 3.76159 8.74333 2.80945 9.4356 4.47103C10.7649 7.66127 5.73755 12.0658 9.89487 14.6608C10.4475 15.0058 11.0591 15.2515 11.6804 15.4427C11.9298 15.5196 14.0156 16.1186 14.1045 15.9408L15.4965 12.6259C15.4965 12.6259 9.26459 13.5541 11.1203 9.44384C11.9978 7.50146 13.7445 4.92059 12.071 2.88188C5.82268 -4.73004 -5.23339 16.5748 4.09538 17.1655C11.5393 17.6368 5.44481 3.63389 3.87209 0.822266C2.85647 1.50109 1.95511 2.37557 0.938742 3.05439H0.940982Z" fill="white"/>
</svg>
