<svg width="16" height="16" viewBox="0 0 16 16" fill="none" xmlns="http://www.w3.org/2000/svg">
<path d="M10.8719 2.9223C10.4779 2.9223 10.2808 2.9223 10.1013 2.85571C10.0764 2.84645 10.0519 2.83628 10.0277 2.82519C9.85367 2.74537 9.71441 2.60607 9.43574 2.32745C8.79447 1.68619 8.47387 1.36555 8.07934 1.33599C8.02634 1.33201 7.97301 1.33201 7.92001 1.33599C7.52547 1.36555 7.20481 1.68619 6.56357 2.32745C6.28496 2.60607 6.14565 2.74537 5.97165 2.82519C5.94749 2.83628 5.92291 2.84645 5.89799 2.85571C5.71851 2.9223 5.52149 2.9223 5.12748 2.9223H5.0548C4.04953 2.9223 3.54689 2.9223 3.2346 3.2346C2.9223 3.54689 2.9223 4.04953 2.9223 5.0548V5.12748C2.9223 5.52149 2.9223 5.71851 2.85571 5.89799C2.84645 5.92291 2.83628 5.94749 2.82519 5.97165C2.74537 6.14565 2.60607 6.28496 2.32745 6.56357C1.68619 7.20481 1.36555 7.52547 1.33599 7.92001C1.33201 7.97301 1.33201 8.02634 1.33599 8.07934C1.36555 8.47387 1.68619 8.79447 2.32745 9.43574C2.60607 9.71441 2.74537 9.85367 2.82519 10.0277C2.83628 10.0519 2.84645 10.0764 2.85571 10.1013C2.9223 10.2808 2.9223 10.4779 2.9223 10.8719V10.9445C2.9223 11.9498 2.9223 12.4525 3.2346 12.7647C3.54689 13.0771 4.04953 13.0771 5.0548 13.0771H5.12748C5.52149 13.0771 5.71851 13.0771 5.89799 13.1437C5.92291 13.1529 5.94749 13.1631 5.97165 13.1741C6.14565 13.254 6.28496 13.3933 6.56357 13.6719C7.20481 14.3131 7.52547 14.6338 7.92001 14.6633C7.97301 14.6673 8.02627 14.6673 8.07934 14.6633C8.47387 14.6338 8.79447 14.3131 9.43574 13.6719C9.71441 13.3933 9.85367 13.254 10.0277 13.1741C10.0519 13.1631 10.0764 13.1529 10.1013 13.1437C10.2808 13.0771 10.4779 13.0771 10.8719 13.0771H10.9445C11.9498 13.0771 12.4525 13.0771 12.7647 12.7647C13.0771 12.4525 13.0771 11.9498 13.0771 10.9445V10.8719C13.0771 10.4779 13.0771 10.2808 13.1437 10.1013C13.1529 10.0764 13.1631 10.0519 13.1741 10.0277C13.254 9.85367 13.3933 9.71441 13.6719 9.43574C14.3131 8.79447 14.6338 8.47387 14.6633 8.07934C14.6673 8.02627 14.6673 7.97301 14.6633 7.92001C14.6338 7.52547 14.3131 7.20481 13.6719 6.56357C13.3933 6.28496 13.254 6.14565 13.1741 5.97165C13.1631 5.94749 13.1529 5.92291 13.1437 5.89799C13.0771 5.71851 13.0771 5.52149 13.0771 5.12748V5.0548C13.0771 4.04953 13.0771 3.54689 12.7647 3.2346C12.4525 2.9223 11.9498 2.9223 10.9445 2.9223H10.8719Z" stroke="#7A7979"/>
<path d="M10.3337 8.00033C10.3337 9.28899 9.28899 10.3337 8.00033 10.3337C6.71166 10.3337 5.66699 9.28899 5.66699 8.00033C5.66699 6.71166 6.71166 5.66699 8.00033 5.66699C9.28899 5.66699 10.3337 6.71166 10.3337 8.00033Z" stroke="#7A7979"/>
</svg>
