<svg width="16" height="16" viewBox="0 0 16 16" fill="none" xmlns="http://www.w3.org/2000/svg">
<path d="M7.33734 14.0003H6.40331C4.01315 14.0003 2.81807 14.0003 2.07553 13.2437C1.33301 12.4871 1.33301 11.2693 1.33301 8.83366C1.33301 6.39807 1.33301 5.18027 2.07553 4.42363C2.81807 3.66699 4.01315 3.66699 6.40331 3.66699H8.93847C11.3286 3.66699 12.5237 3.66699 13.2663 4.42363C13.8375 5.00579 13.9693 5.86093 13.9997 7.33366" stroke="#7A7979" stroke-linecap="round" stroke-linejoin="round"/>
<path d="M12.567 12.567L11.667 11.967V10.467M8.66699 11.667C8.66699 13.3239 10.0101 14.667 11.667 14.667C13.3239 14.667 14.667 13.3239 14.667 11.667C14.667 10.0101 13.3239 8.66699 11.667 8.66699C10.0101 8.66699 8.66699 10.0101 8.66699 11.667Z" stroke="#7A7979" stroke-linecap="round" stroke-linejoin="round"/>
<path d="M10.667 3.66634L10.6008 3.4603C10.2707 2.4336 10.1057 1.92025 9.71293 1.62663C9.32006 1.33301 8.79833 1.33301 7.75473 1.33301H7.57926C6.53569 1.33301 6.0139 1.33301 5.62107 1.62663C5.22823 1.92025 5.06323 2.4336 4.73322 3.4603L4.66699 3.66634" stroke="#7A7979" stroke-linecap="round" stroke-linejoin="round"/>
</svg>
